<?xml version="1.0" encoding="utf-8"?>
<!-- Generator: Adobe Illustrator 12.0.1, SVG Export Plug-In . SVG Version: 6.00 Build 51448)  -->
<!DOCTYPE svg PUBLIC "-//W3C//DTD SVG 1.1//EN" "http://www.w3.org/Graphics/SVG/1.1/DTD/svg11.dtd" [
	<!ENTITY ns_svg "http://www.w3.org/2000/svg">
	<!ENTITY ns_xlink "http://www.w3.org/1999/xlink">
]>
<svg  version="1.1" id="Layer_1" xmlns="&ns_svg;" xmlns:xlink="&ns_xlink;" width="383.634" height="367.21"
	 viewBox="0 0 383.634 367.21" overflow="visible" enable-background="new 0 0 383.634 367.21" xml:space="preserve">
<path d="M360.712,80.043c0.032-0.011,0.049-0.018,0.049-0.018s-17.443-6.354-32.066-19.227
	c-12.836-14.61-19.173-32.005-19.173-32.005s-6.349,17.427-19.208,32.045c-14.62,12.866-32.055,19.217-32.055,19.217l0,0
	c0,0,17.439,6.353,32.061,19.223c12.856,14.617,19.203,32.04,19.203,32.04s6.41-17.6,19.397-32.262
	c13.778-12.044,29.96-18.322,31.688-18.973c0.059-0.009,0.118-0.019,0.176-0.027C360.76,80.051,360.736,80.047,360.712,80.043z
	 M309.521,67.972l4.531,4.531l-4.531,4.531l-4.531-4.531L309.521,67.972z M297.439,80.055l4.531-4.531l4.531,4.531l-4.531,4.531
	L297.439,80.055z M309.521,92.137l-4.531-4.531l4.531-4.531l4.531,4.531L309.521,92.137z M317.073,84.586l-4.531-4.531l4.531-4.531
	l4.531,4.531L317.073,84.586z"/>
<path d="M340.618,204.709l-0.061,9.34c0.148,0.127,0.296,0.255,0.437,0.395c2.943,2.943,2.943,7.716,0,10.659
	c-2.943,2.944-7.716,2.944-10.659,0c-2.828-2.828-2.931-7.34-0.325-10.3l0.065-10.166c-23.225-2.608-42.307-11.479-42.377-11.511
	l-0.001-0.002l0.001,0.001l-0.002,0l0.002,0.001c0.033,0.07,8.904,19.153,11.512,42.377l10.165-0.065
	c2.961-2.607,7.473-2.503,10.3,0.324c2.944,2.944,2.944,7.717,0,10.66c-2.944,2.944-7.716,2.944-10.66,0
	c-0.141-0.141-0.268-0.288-0.395-0.437l-9.34,0.061c-2.519,23.555-11.585,43.015-11.585,43.015l0,0.002
	c0,0,19.461-9.066,43.015-11.585l0.061-9.34c-0.149-0.127-0.297-0.255-0.437-0.396c-2.944-2.944-2.944-7.716-0.001-10.66
	c2.944-2.942,7.717-2.942,10.66,0c2.828,2.829,2.931,7.341,0.325,10.302l-0.066,10.164c23.212,2.607,42.284,11.468,42.375,11.511
	l0.003,0.004l0-0.002l0.002,0.002l-0.003-0.004c-0.043-0.094-8.903-19.164-11.511-42.375l-10.166,0.065
	c-2.96,2.605-7.472,2.502-10.3-0.326c-2.943-2.942-2.943-7.716,0-10.658c2.944-2.944,7.716-2.944,10.66,0
	c0.14,0.139,0.268,0.288,0.395,0.437l9.34-0.061c2.519-23.554,11.585-43.016,11.585-43.016l0.001-0.001
	C383.634,193.124,364.172,202.19,340.618,204.709z"/>
<path d="M212.047,274.685c-2.458-1.011-5.147-1.574-7.967-1.588v-0.041c-2.856,0.001-5.58,0.568-8.067,1.591l-52.11-40.529
	l40.53,52.109c-1.011,2.462-1.577,5.155-1.588,7.979h-0.022c-0.001,2.856,0.568,5.579,1.591,8.067l-40.53,52.111l52.109-40.531
	c2.459,1.012,5.147,1.576,7.967,1.589l0,0.041c2.856-0.001,5.579-0.568,8.067-1.591l52.111,40.529l-40.531-52.109
	c1.013-2.463,1.577-5.155,1.589-7.979l0.022,0.001c0-2.857-0.568-5.58-1.59-8.068l40.529-52.11L212.047,274.685z M211.939,294.243
	h-0.017c0.001,4.366-3.512,7.905-7.863,7.959l0-0.033c-4.369,0-7.912-3.518-7.959-7.875h0.016c0-4.365,3.512-7.906,7.864-7.959
	v0.033C208.349,286.368,211.892,289.887,211.939,294.243z"/>
<path d="M136.124,90.558c-0.934,0.358-1.944,0.563-3.004,0.563c-4.636,0-8.395-3.76-8.395-8.396s3.759-8.396,8.395-8.396
	c2.949,0,5.538,1.523,7.035,3.824l40.518-26.33l-48.134,2.508c0.012,0.178,0.027,0.355,0.027,0.537c0,4.637-3.759,8.395-8.395,8.395
	s-8.395-3.758-8.395-8.395c0-3.848,2.591-7.082,6.122-8.074L109.344,0L96.848,46.58c3.579,0.959,6.218,4.217,6.218,8.1
	c0,4.636-3.759,8.395-8.395,8.395s-8.395-3.759-8.395-8.395c0-0.115,0.013-0.227,0.017-0.341l-48.278-2.515l40.491,26.312
	c1.523-2.125,4.007-3.515,6.821-3.515c4.636,0,8.395,3.759,8.395,8.396c0,4.636-3.759,8.395-8.395,8.395
	c-1.018,0-1.988-0.189-2.891-0.521L65.26,135.676l37.3-30.186c-1.063-1.406-1.701-3.152-1.701-5.051
	c0-4.637,3.759-8.395,8.395-8.395s8.395,3.758,8.395,8.395c0,1.857-0.611,3.569-1.633,4.96l37.412,30.276L136.124,90.558z"/>
<polygon points="97.824,298.36 112.141,298.36 155.855,290.71 112.141,283.06 97.824,283.06 107.947,272.937 133.449,236.616 
	97.128,262.118 87.005,272.241 87.005,257.925 79.355,214.21 71.705,257.925 71.705,272.241 61.582,262.118 25.261,236.616 
	50.763,272.937 60.886,283.06 46.569,283.06 2.855,290.71 46.569,298.36 60.886,298.36 50.763,308.483 25.261,344.804 
	61.582,319.302 71.705,309.179 71.705,323.495 79.355,367.21 87.005,323.495 87.005,309.179 97.128,319.302 133.449,344.804 
	107.947,308.483 "/>
<path d="M101.325,206.733l-25.149-22.102c0.624-2.277,0.961-4.673,0.961-7.148s-0.337-4.872-0.961-7.148l25.148-22.102
	l-31.587,10.686c-3.502-3.696-8.037-6.404-13.145-7.657l-6.456-32.279l-6.456,32.279c-4.982,1.223-9.417,3.832-12.883,7.39
	L0,148.233l24.31,21.364c-0.761,2.495-1.172,5.142-1.172,7.886s0.411,5.392,1.172,7.886L0,206.733l30.798-10.419
	c3.466,3.559,7.901,6.167,12.883,7.391l6.456,32.278l6.456-32.278c5.108-1.254,9.642-3.961,13.145-7.656L101.325,206.733z
	 M50.138,186.483c-4.971,0-9-4.029-9-9s4.03-9,9-9c4.97,0,9,4.029,9,9S55.108,186.483,50.138,186.483z"/>
<path d="M282.839,167.354c3.335-1.112,23.344-4.447,23.344-4.447s-0.454-0.076-1.233-0.208h-0.05
	c-4.952-0.841-18.858-3.24-21.589-4.15c-3.334-1.111,0-8.894,0-8.894l-22.126,4.215c-1.765,3.053-5.062,5.11-8.843,5.11
	c-5.638,0-10.208-4.569-10.208-10.207c0-5.638,4.57-10.208,10.208-10.208c0.841,0,1.657,0.104,2.438,0.296l18.772-12.766
	c0,0-7.86-3.144-6.289-6.289c1.572-3.144,13.363-19.65,13.363-19.65s-16.506,11.791-19.651,13.362
	c-3.144,1.572-6.288-6.289-6.288-6.289l-13.363,19.651c0.047,0.326,0.045,0.689,0.007,1.075c0.042,0.374,0.065,0.752,0.065,1.138
	c0,5.637-4.57,10.206-10.208,10.206c-5.638,0-10.208-4.569-10.208-10.206c0-4.093,2.41-7.621,5.885-9.248l4.262-22.375
	c0,0-7.781,3.335-8.893,0c-1.111-3.335-4.446-23.344-4.446-23.344s-3.425,20.038-4.363,22.849c-1.112,3.336-8.893,0-8.893,0
	l4.214,22.127c3.054,1.764,5.111,5.062,5.111,8.843c0,5.638-4.57,10.208-10.207,10.208c-5.637,0-10.208-4.57-10.208-10.208
	c0-0.841,0.104-1.656,0.296-2.438l-12.765-18.772c0,0-3.144,7.86-6.289,6.288c-3.144-1.571-19.651-13.362-19.651-13.362
	s11.791,16.506,13.363,19.65s-6.289,6.289-6.289,6.289l19.651,13.363c0.326-0.047,0.69-0.044,1.075-0.007
	c0.374-0.042,0.753-0.064,1.138-0.064c5.637,0,10.207,4.57,10.207,10.208c0,5.637-4.57,10.207-10.207,10.207
	c-4.092,0-7.62-2.409-9.248-5.886l-22.374-4.261c0,0,3.334,7.781,0,8.893c-3.335,1.112-23.344,4.447-23.344,4.447
	s0.454,0.075,1.232,0.207h0.051c4.952,0.841,18.858,3.24,21.588,4.151c3.335,1.111,0,8.892,0,8.892l22.127-4.214
	c1.764-3.054,5.062-5.112,8.843-5.112c5.637,0,10.207,4.571,10.207,10.208c0,5.637-4.57,10.208-10.207,10.208
	c-0.842,0-1.657-0.104-2.439-0.296l-18.772,12.766c0,0,7.86,3.144,6.288,6.288c-1.572,3.144-13.362,19.651-13.362,19.651
	s16.506-11.792,19.651-13.363c3.144-1.573,6.288,6.288,6.288,6.288l13.362-19.651c-0.046-0.326-0.044-0.689-0.006-1.074
	c-0.042-0.374-0.064-0.753-0.064-1.138c0-5.637,4.57-10.207,10.207-10.207s10.207,4.57,10.207,10.207
	c0,4.092-2.409,7.62-5.885,9.248l-4.262,22.374c0,0,7.782-3.334,8.893,0c1.112,3.335,4.447,23.344,4.447,23.344
	s0.054-0.322,0.148-0.883c0.774-4.573,3.28-19.162,4.215-21.967c1.112-3.334,8.893,0,8.893,0l-4.214-22.126
	c-3.053-1.764-5.111-5.062-5.111-8.842c0-5.639,4.57-10.208,10.208-10.208c5.637,0,10.208,4.569,10.208,10.208
	c0,0.84-0.104,1.656-0.296,2.438l12.765,18.771c0,0,3.144-7.86,6.289-6.289c3.144,1.572,19.65,13.364,19.65,13.364
	s-11.791-16.506-13.362-19.651c-1.573-3.143,6.287-6.289,6.287-6.289l-19.65-13.363c-0.326,0.047-0.689,0.044-1.075,0.008
	c-0.374,0.041-0.752,0.063-1.137,0.063c-5.638,0-10.207-4.57-10.207-10.207s4.569-10.208,10.207-10.208
	c4.092,0,7.62,2.41,9.248,5.885l22.374,4.262C282.839,176.246,279.504,168.465,282.839,167.354z"/>
</svg>
